<mxfile host="Electron" modified="2024-07-16T11:51:23.158Z" agent="Mozilla/5.0 (Windows NT 10.0; Win64; x64) AppleWebKit/537.36 (KHTML, like Gecko) draw.io/24.6.4 Chrome/124.0.6367.207 Electron/30.0.6 Safari/537.36" etag="rEMWRyOTUb6EdKd8l3q5" version="24.6.4" type="device">
  <diagram name="Page-1" id="-rHIpAXLnPyDoSZyoApK">
    <mxGraphModel dx="3020" dy="2311" grid="0" gridSize="10" guides="0" tooltips="1" connect="1" arrows="1" fold="1" page="0" pageScale="1" pageWidth="850" pageHeight="1100" math="0" shadow="0">
      <root>
        <mxCell id="0" />
        <mxCell id="1" parent="0" />
        <mxCell id="4DOVXCoTs3ABJYxbuWyv-8" style="edgeStyle=none;shape=connector;rounded=0;orthogonalLoop=1;jettySize=auto;html=1;exitX=0.25;exitY=1;exitDx=0;exitDy=0;entryX=0.5;entryY=0;entryDx=0;entryDy=0;strokeColor=default;align=center;verticalAlign=middle;fontFamily=Helvetica;fontSize=11;fontColor=default;labelBackgroundColor=default;endArrow=none;endFill=0;" parent="1" source="4DOVXCoTs3ABJYxbuWyv-1" target="4DOVXCoTs3ABJYxbuWyv-5" edge="1">
          <mxGeometry relative="1" as="geometry" />
        </mxCell>
        <mxCell id="4DOVXCoTs3ABJYxbuWyv-9" style="edgeStyle=none;shape=connector;rounded=0;orthogonalLoop=1;jettySize=auto;html=1;exitX=0.75;exitY=1;exitDx=0;exitDy=0;entryX=0.5;entryY=0;entryDx=0;entryDy=0;strokeColor=default;align=center;verticalAlign=middle;fontFamily=Helvetica;fontSize=11;fontColor=default;labelBackgroundColor=default;endArrow=none;endFill=0;" parent="1" source="4DOVXCoTs3ABJYxbuWyv-1" target="4DOVXCoTs3ABJYxbuWyv-4" edge="1">
          <mxGeometry relative="1" as="geometry" />
        </mxCell>
        <mxCell id="4DOVXCoTs3ABJYxbuWyv-1" value="&lt;font style=&quot;font-size: 30px;&quot;&gt;course&lt;/font&gt;" style="rounded=0;whiteSpace=wrap;html=1;" parent="1" vertex="1">
          <mxGeometry x="330" y="240" width="175" height="90" as="geometry" />
        </mxCell>
        <mxCell id="4DOVXCoTs3ABJYxbuWyv-4" value="&lt;span style=&quot;font-size: 30px;&quot;&gt;&lt;u&gt;id_date_group&lt;/u&gt;&lt;/span&gt;" style="ellipse;whiteSpace=wrap;html=1;fontFamily=Helvetica;fontSize=11;fontColor=default;labelBackgroundColor=default;" parent="1" vertex="1">
          <mxGeometry x="425" y="400" width="252" height="154" as="geometry" />
        </mxCell>
        <mxCell id="4DOVXCoTs3ABJYxbuWyv-5" value="&lt;span style=&quot;font-size: 30px;&quot;&gt;name&lt;/span&gt;" style="ellipse;whiteSpace=wrap;html=1;fontFamily=Helvetica;fontSize=11;fontColor=default;labelBackgroundColor=default;" parent="1" vertex="1">
          <mxGeometry x="250" y="400" width="170" height="110" as="geometry" />
        </mxCell>
        <mxCell id="4DOVXCoTs3ABJYxbuWyv-11" value="&lt;font style=&quot;font-size: 30px;&quot;&gt;user&lt;/font&gt;" style="rounded=0;whiteSpace=wrap;html=1;" parent="1" vertex="1">
          <mxGeometry x="330" y="-240" width="175" height="90" as="geometry" />
        </mxCell>
        <mxCell id="4DOVXCoTs3ABJYxbuWyv-13" value="" style="edgeStyle=none;shape=connector;rounded=0;orthogonalLoop=1;jettySize=auto;html=1;strokeColor=default;align=center;verticalAlign=middle;fontFamily=Helvetica;fontSize=11;fontColor=default;labelBackgroundColor=default;endArrow=none;endFill=0;exitX=0.5;exitY=0;exitDx=0;exitDy=0;" parent="1" source="4DOVXCoTs3ABJYxbuWyv-12" target="4DOVXCoTs3ABJYxbuWyv-11" edge="1">
          <mxGeometry relative="1" as="geometry" />
        </mxCell>
        <mxCell id="4DOVXCoTs3ABJYxbuWyv-14" style="edgeStyle=none;shape=connector;rounded=0;orthogonalLoop=1;jettySize=auto;html=1;exitX=0.5;exitY=1;exitDx=0;exitDy=0;entryX=0.687;entryY=0.023;entryDx=0;entryDy=0;strokeColor=default;align=center;verticalAlign=middle;fontFamily=Helvetica;fontSize=11;fontColor=default;labelBackgroundColor=default;endArrow=none;endFill=0;entryPerimeter=0;" parent="1" source="4DOVXCoTs3ABJYxbuWyv-12" target="4DOVXCoTs3ABJYxbuWyv-1" edge="1">
          <mxGeometry relative="1" as="geometry" />
        </mxCell>
        <mxCell id="4DOVXCoTs3ABJYxbuWyv-12" value="&lt;font style=&quot;font-size: 30px;&quot;&gt;enrolled&lt;/font&gt;" style="rhombus;whiteSpace=wrap;html=1;fontFamily=Helvetica;fontSize=11;fontColor=default;labelBackgroundColor=default;" parent="1" vertex="1">
          <mxGeometry x="480" y="-31" width="155" height="150" as="geometry" />
        </mxCell>
        <mxCell id="4DOVXCoTs3ABJYxbuWyv-15" value="" style="edgeStyle=none;shape=connector;rounded=0;orthogonalLoop=1;jettySize=auto;html=1;strokeColor=default;align=center;verticalAlign=middle;fontFamily=Helvetica;fontSize=11;fontColor=default;labelBackgroundColor=default;endArrow=none;endFill=0;exitX=0.5;exitY=0;exitDx=0;exitDy=0;entryX=0.312;entryY=1.017;entryDx=0;entryDy=0;entryPerimeter=0;" parent="1" source="4DOVXCoTs3ABJYxbuWyv-17" target="4DOVXCoTs3ABJYxbuWyv-11" edge="1">
          <mxGeometry relative="1" as="geometry">
            <mxPoint x="227.50000000000045" y="-160" as="targetPoint" />
          </mxGeometry>
        </mxCell>
        <mxCell id="4DOVXCoTs3ABJYxbuWyv-16" style="edgeStyle=none;shape=connector;rounded=0;orthogonalLoop=1;jettySize=auto;html=1;exitX=0.5;exitY=1;exitDx=0;exitDy=0;entryX=0.25;entryY=0;entryDx=0;entryDy=0;strokeColor=default;align=center;verticalAlign=middle;fontFamily=Helvetica;fontSize=11;fontColor=default;labelBackgroundColor=default;endArrow=none;endFill=0;" parent="1" source="4DOVXCoTs3ABJYxbuWyv-17" target="4DOVXCoTs3ABJYxbuWyv-1" edge="1">
          <mxGeometry relative="1" as="geometry">
            <mxPoint x="227.5" y="230" as="targetPoint" />
          </mxGeometry>
        </mxCell>
        <mxCell id="4DOVXCoTs3ABJYxbuWyv-17" value="&lt;font style=&quot;font-size: 30px;&quot;&gt;admin&lt;/font&gt;" style="rhombus;whiteSpace=wrap;html=1;fontFamily=Helvetica;fontSize=11;fontColor=default;labelBackgroundColor=default;flipH=1;" parent="1" vertex="1">
          <mxGeometry x="200" y="-31" width="155" height="150" as="geometry" />
        </mxCell>
        <mxCell id="4DOVXCoTs3ABJYxbuWyv-20" style="edgeStyle=none;shape=connector;rounded=0;orthogonalLoop=1;jettySize=auto;html=1;exitX=0.5;exitY=1;exitDx=0;exitDy=0;entryX=0.75;entryY=0;entryDx=0;entryDy=0;strokeColor=default;align=center;verticalAlign=middle;fontFamily=Helvetica;fontSize=11;fontColor=default;labelBackgroundColor=default;endArrow=none;endFill=0;" parent="1" source="4DOVXCoTs3ABJYxbuWyv-19" target="4DOVXCoTs3ABJYxbuWyv-11" edge="1">
          <mxGeometry relative="1" as="geometry" />
        </mxCell>
        <mxCell id="4DOVXCoTs3ABJYxbuWyv-19" value="&lt;span style=&quot;font-size: 30px;&quot;&gt;&lt;u&gt;userID&lt;/u&gt;&lt;/span&gt;" style="ellipse;whiteSpace=wrap;html=1;fontFamily=Helvetica;fontSize=11;fontColor=default;labelBackgroundColor=default;" parent="1" vertex="1">
          <mxGeometry x="376" y="-431" width="170" height="110" as="geometry" />
        </mxCell>
        <mxCell id="4DOVXCoTs3ABJYxbuWyv-29" style="edgeStyle=none;shape=connector;rounded=0;orthogonalLoop=1;jettySize=auto;html=1;exitX=0.75;exitY=0;exitDx=0;exitDy=0;entryX=0.5;entryY=1;entryDx=0;entryDy=0;strokeColor=default;align=center;verticalAlign=middle;fontFamily=Helvetica;fontSize=11;fontColor=default;labelBackgroundColor=default;endArrow=none;endFill=0;" parent="1" source="4DOVXCoTs3ABJYxbuWyv-30" target="4DOVXCoTs3ABJYxbuWyv-33" edge="1">
          <mxGeometry relative="1" as="geometry" />
        </mxCell>
        <mxCell id="4DOVXCoTs3ABJYxbuWyv-30" value="&lt;span style=&quot;font-size: 30px;&quot;&gt;Deadline&lt;/span&gt;" style="rounded=0;whiteSpace=wrap;html=1;" parent="1" vertex="1">
          <mxGeometry x="-370" y="380" width="175" height="90" as="geometry" />
        </mxCell>
        <mxCell id="4DOVXCoTs3ABJYxbuWyv-31" style="edgeStyle=none;shape=connector;rounded=0;orthogonalLoop=1;jettySize=auto;html=1;exitX=0;exitY=0.5;exitDx=0;exitDy=0;entryX=1;entryY=0.5;entryDx=0;entryDy=0;strokeColor=default;align=center;verticalAlign=middle;fontFamily=Helvetica;fontSize=11;fontColor=default;labelBackgroundColor=default;endArrow=none;endFill=0;" parent="1" source="4DOVXCoTs3ABJYxbuWyv-32" target="4DOVXCoTs3ABJYxbuWyv-30" edge="1">
          <mxGeometry relative="1" as="geometry">
            <mxPoint x="-80" y="425" as="sourcePoint" />
          </mxGeometry>
        </mxCell>
        <mxCell id="4DOVXCoTs3ABJYxbuWyv-34" style="edgeStyle=none;shape=connector;rounded=0;orthogonalLoop=1;jettySize=auto;html=1;exitX=1;exitY=0.5;exitDx=0;exitDy=0;entryX=0;entryY=0.5;entryDx=0;entryDy=0;strokeColor=default;align=center;verticalAlign=middle;fontFamily=Helvetica;fontSize=11;fontColor=default;labelBackgroundColor=default;endArrow=none;endFill=0;" parent="1" source="4DOVXCoTs3ABJYxbuWyv-32" target="4DOVXCoTs3ABJYxbuWyv-1" edge="1">
          <mxGeometry relative="1" as="geometry" />
        </mxCell>
        <mxCell id="4DOVXCoTs3ABJYxbuWyv-32" value="&lt;span style=&quot;font-size: 30px;&quot;&gt;has&lt;/span&gt;" style="rhombus;whiteSpace=wrap;html=1;fontFamily=Helvetica;fontSize=11;fontColor=default;labelBackgroundColor=default;flipH=1;" parent="1" vertex="1">
          <mxGeometry x="9" y="263" width="155" height="150" as="geometry" />
        </mxCell>
        <mxCell id="4DOVXCoTs3ABJYxbuWyv-33" value="&lt;span style=&quot;font-size: 30px;&quot;&gt;&lt;u&gt;id&lt;/u&gt;&lt;/span&gt;" style="ellipse;whiteSpace=wrap;html=1;fontFamily=Helvetica;fontSize=11;fontColor=default;labelBackgroundColor=default;" parent="1" vertex="1">
          <mxGeometry x="-230" y="200" width="170" height="110" as="geometry" />
        </mxCell>
        <mxCell id="4DOVXCoTs3ABJYxbuWyv-36" style="edgeStyle=none;shape=connector;rounded=0;orthogonalLoop=1;jettySize=auto;html=1;exitX=0.5;exitY=1;exitDx=0;exitDy=0;entryX=0.5;entryY=0;entryDx=0;entryDy=0;strokeColor=default;align=center;verticalAlign=middle;fontFamily=Helvetica;fontSize=11;fontColor=default;labelBackgroundColor=default;endArrow=none;endFill=0;" parent="1" source="4DOVXCoTs3ABJYxbuWyv-35" target="4DOVXCoTs3ABJYxbuWyv-30" edge="1">
          <mxGeometry relative="1" as="geometry" />
        </mxCell>
        <mxCell id="4DOVXCoTs3ABJYxbuWyv-35" value="&lt;span style=&quot;font-size: 30px;&quot;&gt;title&lt;/span&gt;" style="ellipse;whiteSpace=wrap;html=1;fontFamily=Helvetica;fontSize=11;fontColor=default;labelBackgroundColor=default;" parent="1" vertex="1">
          <mxGeometry x="-430" y="200" width="170" height="110" as="geometry" />
        </mxCell>
        <mxCell id="4DOVXCoTs3ABJYxbuWyv-38" style="edgeStyle=none;shape=connector;rounded=0;orthogonalLoop=1;jettySize=auto;html=1;exitX=1;exitY=0.5;exitDx=0;exitDy=0;entryX=0;entryY=0.5;entryDx=0;entryDy=0;strokeColor=default;align=center;verticalAlign=middle;fontFamily=Helvetica;fontSize=11;fontColor=default;labelBackgroundColor=default;endArrow=none;endFill=0;" parent="1" source="4DOVXCoTs3ABJYxbuWyv-37" target="4DOVXCoTs3ABJYxbuWyv-30" edge="1">
          <mxGeometry relative="1" as="geometry" />
        </mxCell>
        <mxCell id="4DOVXCoTs3ABJYxbuWyv-37" value="&lt;span style=&quot;font-size: 30px;&quot;&gt;due date&lt;/span&gt;" style="ellipse;whiteSpace=wrap;html=1;fontFamily=Helvetica;fontSize=11;fontColor=default;labelBackgroundColor=default;" parent="1" vertex="1">
          <mxGeometry x="-630" y="370" width="170" height="110" as="geometry" />
        </mxCell>
        <mxCell id="4DOVXCoTs3ABJYxbuWyv-43" style="edgeStyle=none;shape=connector;rounded=0;orthogonalLoop=1;jettySize=auto;html=1;exitX=1;exitY=0.5;exitDx=0;exitDy=0;entryX=0;entryY=0.5;entryDx=0;entryDy=0;strokeColor=default;align=center;verticalAlign=middle;fontFamily=Helvetica;fontSize=11;fontColor=default;labelBackgroundColor=default;endArrow=none;endFill=0;" parent="1" source="4DOVXCoTs3ABJYxbuWyv-44" target="4DOVXCoTs3ABJYxbuWyv-17" edge="1">
          <mxGeometry relative="1" as="geometry">
            <mxPoint x="165" y="44" as="targetPoint" />
          </mxGeometry>
        </mxCell>
        <mxCell id="4DOVXCoTs3ABJYxbuWyv-44" value="&lt;span style=&quot;font-size: 30px;&quot;&gt;role&lt;/span&gt;" style="ellipse;whiteSpace=wrap;html=1;fontFamily=Helvetica;fontSize=11;fontColor=default;labelBackgroundColor=default;" parent="1" vertex="1">
          <mxGeometry x="-26" y="-11" width="170" height="110" as="geometry" />
        </mxCell>
        <mxCell id="4DOVXCoTs3ABJYxbuWyv-45" style="edgeStyle=none;shape=connector;rounded=0;orthogonalLoop=1;jettySize=auto;html=1;exitX=1;exitY=0.5;exitDx=0;exitDy=0;entryX=0;entryY=0;entryDx=0;entryDy=0;strokeColor=default;align=center;verticalAlign=middle;fontFamily=Helvetica;fontSize=11;fontColor=default;labelBackgroundColor=default;endArrow=none;endFill=0;" parent="1" source="4DOVXCoTs3ABJYxbuWyv-4" target="4DOVXCoTs3ABJYxbuWyv-46" edge="1">
          <mxGeometry relative="1" as="geometry">
            <mxPoint x="671" y="70" as="sourcePoint" />
          </mxGeometry>
        </mxCell>
        <mxCell id="4DOVXCoTs3ABJYxbuWyv-46" value="&lt;span style=&quot;font-size: 30px;&quot;&gt;semester&lt;/span&gt;" style="ellipse;whiteSpace=wrap;html=1;fontFamily=Helvetica;fontSize=11;fontColor=default;labelBackgroundColor=default;" parent="1" vertex="1">
          <mxGeometry x="730" y="444" width="170" height="110" as="geometry" />
        </mxCell>
        <mxCell id="4DOVXCoTs3ABJYxbuWyv-47" style="edgeStyle=none;shape=connector;rounded=0;orthogonalLoop=1;jettySize=auto;html=1;exitX=1;exitY=1;exitDx=0;exitDy=0;entryX=0.5;entryY=0;entryDx=0;entryDy=0;strokeColor=default;align=center;verticalAlign=middle;fontFamily=Helvetica;fontSize=11;fontColor=default;labelBackgroundColor=default;endArrow=none;endFill=0;" parent="1" source="4DOVXCoTs3ABJYxbuWyv-46" target="4DOVXCoTs3ABJYxbuWyv-48" edge="1">
          <mxGeometry relative="1" as="geometry">
            <mxPoint x="836" y="195" as="sourcePoint" />
          </mxGeometry>
        </mxCell>
        <mxCell id="4DOVXCoTs3ABJYxbuWyv-48" value="&lt;span style=&quot;font-size: 30px;&quot;&gt;term&lt;/span&gt;" style="ellipse;whiteSpace=wrap;html=1;fontFamily=Helvetica;fontSize=11;fontColor=default;labelBackgroundColor=default;" parent="1" vertex="1">
          <mxGeometry x="945" y="546" width="170" height="110" as="geometry" />
        </mxCell>
        <mxCell id="4DOVXCoTs3ABJYxbuWyv-50" style="edgeStyle=none;shape=connector;rounded=0;orthogonalLoop=1;jettySize=auto;html=1;exitX=0;exitY=1;exitDx=0;exitDy=0;entryX=1;entryY=0.5;entryDx=0;entryDy=0;strokeColor=default;align=center;verticalAlign=middle;fontFamily=Helvetica;fontSize=11;fontColor=default;labelBackgroundColor=default;endArrow=none;endFill=0;" parent="1" source="4DOVXCoTs3ABJYxbuWyv-49" target="4DOVXCoTs3ABJYxbuWyv-46" edge="1">
          <mxGeometry relative="1" as="geometry" />
        </mxCell>
        <mxCell id="4DOVXCoTs3ABJYxbuWyv-49" value="&lt;span style=&quot;font-size: 30px;&quot;&gt;year&lt;/span&gt;" style="ellipse;whiteSpace=wrap;html=1;fontFamily=Helvetica;fontSize=11;fontColor=default;labelBackgroundColor=default;" parent="1" vertex="1">
          <mxGeometry x="956" y="358" width="170" height="110" as="geometry" />
        </mxCell>
        <mxCell id="ACP-15s4Wf07O_GMBnDD-3" style="edgeStyle=none;shape=connector;rounded=0;orthogonalLoop=1;jettySize=auto;html=1;entryX=0.5;entryY=0;entryDx=0;entryDy=0;strokeColor=default;align=center;verticalAlign=middle;fontFamily=Helvetica;fontSize=11;fontColor=default;labelBackgroundColor=default;endArrow=none;endFill=0;exitX=0;exitY=1;exitDx=0;exitDy=0;" edge="1" parent="1" target="ACP-15s4Wf07O_GMBnDD-4" source="4DOVXCoTs3ABJYxbuWyv-4">
          <mxGeometry relative="1" as="geometry">
            <mxPoint x="458" y="559" as="sourcePoint" />
          </mxGeometry>
        </mxCell>
        <mxCell id="ACP-15s4Wf07O_GMBnDD-4" value="&lt;span style=&quot;font-size: 30px;&quot;&gt;group&lt;/span&gt;" style="ellipse;whiteSpace=wrap;html=1;fontFamily=Helvetica;fontSize=11;fontColor=default;labelBackgroundColor=default;" vertex="1" parent="1">
          <mxGeometry x="334" y="622" width="170" height="110" as="geometry" />
        </mxCell>
        <mxCell id="ACP-15s4Wf07O_GMBnDD-5" style="edgeStyle=none;shape=connector;rounded=0;orthogonalLoop=1;jettySize=auto;html=1;exitX=1;exitY=1;exitDx=0;exitDy=0;entryX=0.5;entryY=0;entryDx=0;entryDy=0;strokeColor=default;align=center;verticalAlign=middle;fontFamily=Helvetica;fontSize=11;fontColor=default;labelBackgroundColor=default;endArrow=none;endFill=0;" edge="1" parent="1" target="ACP-15s4Wf07O_GMBnDD-6" source="4DOVXCoTs3ABJYxbuWyv-4">
          <mxGeometry relative="1" as="geometry">
            <mxPoint x="668" y="563" as="sourcePoint" />
          </mxGeometry>
        </mxCell>
        <mxCell id="ACP-15s4Wf07O_GMBnDD-6" value="&lt;span style=&quot;font-size: 30px;&quot;&gt;id&lt;/span&gt;" style="ellipse;whiteSpace=wrap;html=1;fontFamily=Helvetica;fontSize=11;fontColor=default;labelBackgroundColor=default;" vertex="1" parent="1">
          <mxGeometry x="544" y="633" width="170" height="110" as="geometry" />
        </mxCell>
      </root>
    </mxGraphModel>
  </diagram>
</mxfile>
